<svg width="100" height="100" viewBox="0 0 100 100" fill="none" xmlns="http://www.w3.org/2000/svg">
<path d="M66.2344 58.6875L69.6094 52.3125V87H66.2344V58.6875ZM72.9844 45.75L76.3594 39.375V87H72.9844V45.75ZM79.7344 33L83.1094 26.5781V87H79.7344V33ZM57.0938 57.0938L55.1719 53.5781L78.4219 9.375H82.2188L57.0938 57.0938ZM53.2031 49.7344L51.2344 46.1719L70.7344 9.375H74.5781L53.2031 49.7344ZM30.6094 52.6875L33.9844 59.0625V87H30.6094V52.6875ZM23.8594 39.8438L27.2344 46.2188V87H23.8594V39.8438ZM17.1094 27L20.4844 33.4219V87H17.1094V27ZM44.3906 66.75H40.5938L13.7344 15.7969V87H10.3594V9.375H14.1562L44.3906 66.75ZM52.0312 66.75H48.1875L18 9.375H21.8438L52.0312 66.75ZM86.4844 15.7969L59.625 66.75H55.7812L25.6406 9.375H29.4375L57.75 63.1875L86.0156 9.375H89.8594V87H86.4844V15.7969Z" fill="white"/>
</svg>
